<?xml version="1.0" encoding="UTF-8"?>
<svg id="Layer_2" data-name="Layer 2" xmlns="http://www.w3.org/2000/svg" viewBox="0 0 261.74 61.57">
  <defs>
    <style>
      .cls-1 {
        fill: #008cff;
        stroke-width: 0px;
      }
    </style>
  </defs>
  <g id="Layer_1-2" data-name="Layer 1">
    <g>
      <rect class="cls-1" x="0" y="18.11" width="7.24" height="7.24" rx="3.62" ry="3.62"/>
      <rect class="cls-1" x="0" y="27.16" width="7.24" height="7.24" rx="3.62" ry="3.62"/>
      <rect class="cls-1" x="0" y="36.22" width="7.24" height="7.24" rx="3.62" ry="3.62"/>
      <rect class="cls-1" x="0" y="45.27" width="7.24" height="7.24" rx="3.62" ry="3.62"/>
      <rect class="cls-1" x="0" y="54.32" width="7.24" height="7.24" rx="3.62" ry="3.62"/>
      <rect class="cls-1" x="9.05" y="9.05" width="7.25" height="7.25" rx="3.62" ry="3.62"/>
      <rect class="cls-1" x="9.05" y="18.11" width="7.24" height="7.24" rx="3.62" ry="3.62"/>
      <rect class="cls-1" x="9.05" y="27.16" width="7.25" height="7.25" rx="3.62" ry="3.62"/>
      <rect class="cls-1" x="9.06" y="36.22" width="7.24" height="7.24" rx="3.62" ry="3.62"/>
      <rect class="cls-1" x="9.05" y="45.27" width="7.24" height="7.24" rx="3.62" ry="3.62"/>
      <rect class="cls-1" x="18.11" y="0" width="7.24" height="7.24" rx="3.62" ry="3.62"/>
      <rect class="cls-1" x="18.11" y="9.05" width="7.24" height="7.24" rx="3.62" ry="3.62"/>
      <rect class="cls-1" x="18.11" y="36.22" width="7.24" height="7.24" rx="3.62" ry="3.62"/>
      <rect class="cls-1" x="27.16" y="9.05" width="7.25" height="7.25" rx="3.62" ry="3.62"/>
      <rect class="cls-1" x="27.16" y="18.11" width="7.24" height="7.24" rx="3.62" ry="3.62"/>
      <rect class="cls-1" x="27.16" y="27.16" width="7.25" height="7.25" rx="3.62" ry="3.62"/>
      <rect class="cls-1" x="27.16" y="36.22" width="7.24" height="7.24" rx="3.62" ry="3.62"/>
      <rect class="cls-1" x="27.16" y="45.27" width="7.24" height="7.24" rx="3.62" ry="3.62"/>
      <rect class="cls-1" x="36.22" y="18.11" width="7.24" height="7.24" rx="3.62" ry="3.62"/>
      <rect class="cls-1" x="36.22" y="27.16" width="7.24" height="7.24" rx="3.62" ry="3.62"/>
      <rect class="cls-1" x="36.22" y="36.22" width="7.24" height="7.24" rx="3.62" ry="3.62"/>
      <rect class="cls-1" x="36.22" y="45.27" width="7.24" height="7.24" rx="3.62" ry="3.62"/>
      <rect class="cls-1" x="36.22" y="54.32" width="7.24" height="7.24" rx="3.62" ry="3.62"/>
      <rect class="cls-1" x="55.03" y="0" width="7.24" height="7.24" rx="3.62" ry="3.62"/>
      <rect class="cls-1" x="55.03" y="9.05" width="7.24" height="7.24" rx="3.62" ry="3.62"/>
      <rect class="cls-1" x="55.03" y="18.11" width="7.24" height="7.24" rx="3.62" ry="3.62"/>
      <rect class="cls-1" x="55.03" y="27.16" width="7.24" height="7.24" rx="3.62" ry="3.62"/>
      <rect class="cls-1" x="55.03" y="36.22" width="7.24" height="7.24" rx="3.62" ry="3.62"/>
      <rect class="cls-1" x="55.03" y="45.27" width="7.24" height="7.24" rx="3.62" ry="3.62"/>
      <rect class="cls-1" x="55.03" y="54.32" width="7.24" height="7.24" rx="3.62" ry="3.62"/>
      <rect class="cls-1" x="64.08" y="0" width="7.24" height="7.24" rx="3.62" ry="3.62"/>
      <rect class="cls-1" x="64.08" y="9.05" width="7.24" height="7.24" rx="3.62" ry="3.62"/>
      <rect class="cls-1" x="64.08" y="18.11" width="7.24" height="7.24" rx="3.62" ry="3.62"/>
      <rect class="cls-1" x="64.08" y="27.16" width="7.24" height="7.24" rx="3.62" ry="3.62"/>
      <rect class="cls-1" x="64.08" y="36.22" width="7.24" height="7.24" rx="3.62" ry="3.62"/>
      <rect class="cls-1" x="64.08" y="45.27" width="7.24" height="7.24" rx="3.62" ry="3.62"/>
      <rect class="cls-1" x="64.08" y="54.32" width="7.24" height="7.24" rx="3.62" ry="3.62"/>
      <rect class="cls-1" x="73.14" y="0" width="7.24" height="7.24" rx="3.62" ry="3.62"/>
      <rect class="cls-1" x="73.13" y="27.16" width="7.25" height="7.25" rx="3.62" ry="3.62"/>
      <rect class="cls-1" x="73.13" y="54.32" width="7.25" height="7.25" rx="3.62" ry="3.62"/>
      <rect class="cls-1" x="82.19" y="0" width="7.24" height="7.24" rx="3.62" ry="3.62"/>
      <rect class="cls-1" x="82.19" y="9.05" width="7.24" height="7.24" rx="3.62" ry="3.62"/>
      <rect class="cls-1" x="82.19" y="18.11" width="7.24" height="7.24" rx="3.62" ry="3.62"/>
      <rect class="cls-1" x="82.19" y="27.17" width="7.24" height="7.24" rx="3.62" ry="3.62"/>
      <rect class="cls-1" x="82.19" y="36.22" width="7.24" height="7.24" rx="3.62" ry="3.62"/>
      <rect class="cls-1" x="82.19" y="45.27" width="7.24" height="7.24" rx="3.62" ry="3.62"/>
      <rect class="cls-1" x="82.19" y="54.32" width="7.24" height="7.24" rx="3.62" ry="3.62"/>
      <rect class="cls-1" x="91.24" y="9.05" width="7.24" height="7.24" rx="3.62" ry="3.62"/>
      <rect class="cls-1" x="91.24" y="18.11" width="7.24" height="7.24" rx="3.62" ry="3.62"/>
      <rect class="cls-1" x="91.24" y="36.22" width="7.24" height="7.24" rx="3.62" ry="3.62"/>
      <rect class="cls-1" x="91.24" y="45.27" width="7.24" height="7.24" rx="3.62" ry="3.62"/>
      <rect class="cls-1" x="163.8" y="0" width="7.24" height="7.24" rx="3.62" ry="3.62"/>
      <rect class="cls-1" x="163.8" y="9.05" width="7.24" height="7.24" rx="3.62" ry="3.62"/>
      <rect class="cls-1" x="163.8" y="18.11" width="7.24" height="7.24" rx="3.62" ry="3.62"/>
      <rect class="cls-1" x="163.8" y="27.16" width="7.24" height="7.24" rx="3.62" ry="3.62"/>
      <rect class="cls-1" x="163.8" y="36.22" width="7.24" height="7.24" rx="3.62" ry="3.62"/>
      <rect class="cls-1" x="163.8" y="45.27" width="7.24" height="7.24" rx="3.62" ry="3.62"/>
      <rect class="cls-1" x="172.85" y="0" width="7.24" height="7.24" rx="3.62" ry="3.62"/>
      <rect class="cls-1" x="172.85" y="9.05" width="7.25" height="7.25" rx="3.62" ry="3.62"/>
      <rect class="cls-1" x="172.85" y="18.11" width="7.24" height="7.24" rx="3.62" ry="3.62"/>
      <rect class="cls-1" x="172.85" y="27.16" width="7.25" height="7.25" rx="3.62" ry="3.62"/>
      <rect class="cls-1" x="172.85" y="36.22" width="7.24" height="7.24" rx="3.62" ry="3.62"/>
      <rect class="cls-1" x="172.86" y="45.27" width="7.24" height="7.24" rx="3.62" ry="3.62"/>
      <rect class="cls-1" x="172.85" y="54.32" width="7.25" height="7.25" rx="3.62" ry="3.62"/>
      <rect class="cls-1" x="181.91" y="45.27" width="7.24" height="7.24" rx="3.62" ry="3.62"/>
      <rect class="cls-1" x="181.91" y="54.32" width="7.24" height="7.24" rx="3.62" ry="3.62"/>
      <rect class="cls-1" x="190.96" y="0" width="7.24" height="7.24" rx="3.62" ry="3.62"/>
      <rect class="cls-1" x="190.96" y="9.05" width="7.25" height="7.25" rx="3.62" ry="3.62"/>
      <rect class="cls-1" x="190.96" y="18.11" width="7.24" height="7.24" rx="3.62" ry="3.62"/>
      <rect class="cls-1" x="190.96" y="27.16" width="7.25" height="7.25" rx="3.62" ry="3.62"/>
      <rect class="cls-1" x="190.96" y="36.22" width="7.24" height="7.24" rx="3.62" ry="3.62"/>
      <rect class="cls-1" x="190.96" y="45.27" width="7.24" height="7.24" rx="3.62" ry="3.62"/>
      <rect class="cls-1" x="190.96" y="54.32" width="7.25" height="7.25" rx="3.62" ry="3.62"/>
      <rect class="cls-1" x="200.02" y="0" width="7.24" height="7.24" rx="3.62" ry="3.62"/>
      <rect class="cls-1" x="200.02" y="9.05" width="7.24" height="7.24" rx="3.62" ry="3.62"/>
      <rect class="cls-1" x="200.02" y="18.11" width="7.24" height="7.24" rx="3.62" ry="3.62"/>
      <rect class="cls-1" x="200.02" y="27.16" width="7.24" height="7.24" rx="3.62" ry="3.62"/>
      <rect class="cls-1" x="200.02" y="36.22" width="7.24" height="7.24" rx="3.62" ry="3.62"/>
      <rect class="cls-1" x="200.02" y="45.27" width="7.24" height="7.24" rx="3.62" ry="3.62"/>
      <rect class="cls-1" x="218.28" y="0" width="7.24" height="7.24" rx="3.62" ry="3.62"/>
      <rect class="cls-1" x="218.28" y="9.05" width="7.24" height="7.24" rx="3.62" ry="3.62"/>
      <rect class="cls-1" x="227.33" y="0" width="7.24" height="7.24" rx="3.62" ry="3.62"/>
      <rect class="cls-1" x="227.33" y="9.05" width="7.25" height="7.25" rx="3.62" ry="3.62"/>
      <rect class="cls-1" x="236.39" y="0" width="7.24" height="7.24" rx="3.62" ry="3.62"/>
      <rect class="cls-1" x="236.39" y="9.05" width="7.24" height="7.24" rx="3.62" ry="3.62"/>
      <rect class="cls-1" x="236.39" y="18.11" width="7.24" height="7.24" rx="3.62" ry="3.62"/>
      <rect class="cls-1" x="236.39" y="27.17" width="7.24" height="7.24" rx="3.62" ry="3.62"/>
      <rect class="cls-1" x="236.39" y="36.22" width="7.24" height="7.24" rx="3.62" ry="3.62"/>
      <rect class="cls-1" x="236.39" y="45.27" width="7.24" height="7.24" rx="3.62" ry="3.62"/>
      <rect class="cls-1" x="236.39" y="54.32" width="7.24" height="7.24" rx="3.62" ry="3.62"/>
      <rect class="cls-1" x="245.44" y="0" width="7.24" height="7.24" rx="3.62" ry="3.62"/>
      <rect class="cls-1" x="245.44" y="9.05" width="7.24" height="7.24" rx="3.62" ry="3.62"/>
      <rect class="cls-1" x="254.5" y="0" width="7.24" height="7.24" rx="3.62" ry="3.62"/>
      <rect class="cls-1" x="254.49" y="9.05" width="7.25" height="7.25" rx="3.62" ry="3.62"/>
      <rect class="cls-1" x="109.32" y="9.06" width="7.24" height="7.24" rx="3.62" ry="3.62"/>
      <rect class="cls-1" x="109.32" y="18.11" width="7.24" height="7.24" rx="3.62" ry="3.62"/>
      <rect class="cls-1" x="109.32" y="27.16" width="7.24" height="7.24" rx="3.62" ry="3.62"/>
      <rect class="cls-1" x="109.32" y="36.22" width="7.24" height="7.24" rx="3.62" ry="3.62"/>
      <rect class="cls-1" x="109.32" y="45.27" width="7.24" height="7.24" rx="3.62" ry="3.62"/>
      <rect class="cls-1" x="118.38" y="0" width="7.24" height="7.24" rx="3.62" ry="3.62"/>
      <rect class="cls-1" x="118.38" y="9.06" width="7.24" height="7.24" rx="3.62" ry="3.62"/>
      <rect class="cls-1" x="118.38" y="18.11" width="7.24" height="7.24" rx="3.62" ry="3.62"/>
      <rect class="cls-1" x="118.38" y="27.16" width="7.25" height="7.25" rx="3.62" ry="3.62"/>
      <rect class="cls-1" x="118.38" y="36.22" width="7.24" height="7.24" rx="3.62" ry="3.62"/>
      <rect class="cls-1" x="118.38" y="45.27" width="7.24" height="7.24" rx="3.62" ry="3.62"/>
      <rect class="cls-1" x="118.38" y="54.32" width="7.25" height="7.25" rx="3.62" ry="3.62"/>
      <rect class="cls-1" x="127.43" y="0" width="7.24" height="7.24" rx="3.62" ry="3.62"/>
      <rect class="cls-1" x="127.43" y="9.06" width="7.24" height="7.24" rx="3.62" ry="3.62"/>
      <rect class="cls-1" x="127.43" y="45.27" width="7.24" height="7.24" rx="3.62" ry="3.62"/>
      <rect class="cls-1" x="127.43" y="54.33" width="7.24" height="7.24" rx="3.62" ry="3.62"/>
      <rect class="cls-1" x="136.48" y="0" width="7.24" height="7.24" rx="3.62" ry="3.62"/>
      <rect class="cls-1" x="136.48" y="9.06" width="7.24" height="7.24" rx="3.62" ry="3.62"/>
      <rect class="cls-1" x="136.48" y="18.11" width="7.24" height="7.24" rx="3.62" ry="3.62"/>
      <rect class="cls-1" x="136.48" y="27.17" width="7.24" height="7.24" rx="3.62" ry="3.62"/>
      <rect class="cls-1" x="136.48" y="36.22" width="7.24" height="7.24" rx="3.62" ry="3.62"/>
      <rect class="cls-1" x="136.48" y="45.27" width="7.24" height="7.24" rx="3.62" ry="3.62"/>
      <rect class="cls-1" x="136.48" y="54.33" width="7.24" height="7.24" rx="3.62" ry="3.62"/>
      <rect class="cls-1" x="145.53" y="9.05" width="7.25" height="7.25" rx="3.62" ry="3.62"/>
      <rect class="cls-1" x="145.54" y="18.11" width="7.24" height="7.24" rx="3.62" ry="3.62"/>
      <rect class="cls-1" x="145.54" y="27.16" width="7.24" height="7.24" rx="3.62" ry="3.62"/>
      <rect class="cls-1" x="145.54" y="36.22" width="7.24" height="7.24" rx="3.62" ry="3.62"/>
      <rect class="cls-1" x="145.54" y="45.27" width="7.24" height="7.24" rx="3.62" ry="3.62"/>
    </g>
  </g>
</svg>