<?xml version="1.0" encoding="UTF-8"?>
<svg id="Layer_2" data-name="Layer 2" xmlns="http://www.w3.org/2000/svg" viewBox="0 0 425.24 61.57">
  <defs>
    <style>
      .cls-1 {
        fill: #008cff;
        stroke-width: 0px;
      }
    </style>
  </defs>
  <g id="Layer_1-2" data-name="Layer 1">
    <g>
      <rect class="cls-1" x="217.73" y="18.11" width="7.24" height="7.24" rx="3.62" ry="3.62"/>
      <rect class="cls-1" x="217.73" y="27.16" width="7.24" height="7.24" rx="3.62" ry="3.62"/>
      <rect class="cls-1" x="217.73" y="36.22" width="7.24" height="7.24" rx="3.62" ry="3.62"/>
      <rect class="cls-1" x="217.73" y="45.27" width="7.24" height="7.24" rx="3.62" ry="3.62"/>
      <rect class="cls-1" x="217.73" y="54.33" width="7.24" height="7.24" rx="3.62" ry="3.62"/>
      <rect class="cls-1" x="226.78" y="9.05" width="7.25" height="7.25" rx="3.62" ry="3.62"/>
      <rect class="cls-1" x="226.79" y="18.11" width="7.24" height="7.24" rx="3.62" ry="3.62"/>
      <rect class="cls-1" x="226.78" y="27.16" width="7.25" height="7.25" rx="3.62" ry="3.62"/>
      <rect class="cls-1" x="226.79" y="36.22" width="7.24" height="7.24" rx="3.62" ry="3.62"/>
      <rect class="cls-1" x="226.79" y="45.27" width="7.24" height="7.24" rx="3.62" ry="3.62"/>
      <rect class="cls-1" x="235.84" y="0" width="7.24" height="7.24" rx="3.62" ry="3.62"/>
      <rect class="cls-1" x="235.84" y="9.06" width="7.24" height="7.24" rx="3.62" ry="3.62"/>
      <rect class="cls-1" x="235.84" y="36.22" width="7.24" height="7.24" rx="3.62" ry="3.62"/>
      <rect class="cls-1" x="244.89" y="9.05" width="7.25" height="7.25" rx="3.62" ry="3.62"/>
      <rect class="cls-1" x="244.9" y="18.11" width="7.24" height="7.24" rx="3.62" ry="3.62"/>
      <rect class="cls-1" x="244.89" y="27.16" width="7.25" height="7.25" rx="3.62" ry="3.62"/>
      <rect class="cls-1" x="244.9" y="36.22" width="7.24" height="7.24" rx="3.62" ry="3.62"/>
      <rect class="cls-1" x="244.9" y="45.27" width="7.24" height="7.24" rx="3.62" ry="3.62"/>
      <rect class="cls-1" x="253.95" y="18.11" width="7.24" height="7.24" rx="3.62" ry="3.62"/>
      <rect class="cls-1" x="253.95" y="27.16" width="7.24" height="7.24" rx="3.62" ry="3.62"/>
      <rect class="cls-1" x="253.95" y="36.22" width="7.24" height="7.24" rx="3.62" ry="3.62"/>
      <rect class="cls-1" x="253.95" y="45.27" width="7.24" height="7.24" rx="3.62" ry="3.62"/>
      <rect class="cls-1" x="253.95" y="54.33" width="7.24" height="7.24" rx="3.62" ry="3.62"/>
      <rect class="cls-1" x="163.25" y="0" width="7.24" height="7.24" rx="3.62" ry="3.62"/>
      <rect class="cls-1" x="163.25" y="9.06" width="7.24" height="7.24" rx="3.62" ry="3.62"/>
      <rect class="cls-1" x="172.31" y="0" width="7.24" height="7.24" rx="3.62" ry="3.62"/>
      <rect class="cls-1" x="172.31" y="9.05" width="7.25" height="7.25" rx="3.62" ry="3.62"/>
      <rect class="cls-1" x="181.36" y="0" width="7.24" height="7.24" rx="3.62" ry="3.62"/>
      <rect class="cls-1" x="181.36" y="9.06" width="7.24" height="7.24" rx="3.62" ry="3.62"/>
      <rect class="cls-1" x="181.37" y="18.11" width="7.24" height="7.24" rx="3.62" ry="3.62"/>
      <rect class="cls-1" x="181.36" y="27.17" width="7.24" height="7.24" rx="3.62" ry="3.62"/>
      <rect class="cls-1" x="181.37" y="36.22" width="7.24" height="7.24" rx="3.62" ry="3.62"/>
      <rect class="cls-1" x="181.37" y="45.27" width="7.24" height="7.24" rx="3.62" ry="3.62"/>
      <rect class="cls-1" x="181.36" y="54.33" width="7.24" height="7.24" rx="3.62" ry="3.62"/>
      <rect class="cls-1" x="190.42" y="0" width="7.24" height="7.24" rx="3.62" ry="3.62"/>
      <rect class="cls-1" x="190.41" y="9.06" width="7.24" height="7.24" rx="3.62" ry="3.62"/>
      <rect class="cls-1" x="199.47" y="0" width="7.24" height="7.24" rx="3.62" ry="3.62"/>
      <rect class="cls-1" x="199.47" y="9.05" width="7.25" height="7.25" rx="3.62" ry="3.62"/>
      <rect class="cls-1" x="326.69" y="0" width="7.24" height="7.24" rx="3.62" ry="3.62"/>
      <rect class="cls-1" x="326.69" y="9.06" width="7.24" height="7.24" rx="3.62" ry="3.62"/>
      <rect class="cls-1" x="335.74" y="0" width="7.24" height="7.24" rx="3.62" ry="3.62"/>
      <rect class="cls-1" x="335.74" y="9.05" width="7.25" height="7.25" rx="3.62" ry="3.62"/>
      <rect class="cls-1" x="344.8" y="0" width="7.24" height="7.24" rx="3.62" ry="3.62"/>
      <rect class="cls-1" x="344.8" y="9.06" width="7.24" height="7.24" rx="3.62" ry="3.62"/>
      <rect class="cls-1" x="344.8" y="18.11" width="7.24" height="7.24" rx="3.62" ry="3.62"/>
      <rect class="cls-1" x="344.8" y="27.17" width="7.24" height="7.24" rx="3.62" ry="3.62"/>
      <rect class="cls-1" x="344.8" y="36.22" width="7.24" height="7.24" rx="3.62" ry="3.62"/>
      <rect class="cls-1" x="344.8" y="45.27" width="7.24" height="7.24" rx="3.62" ry="3.62"/>
      <rect class="cls-1" x="344.8" y="54.33" width="7.24" height="7.24" rx="3.62" ry="3.62"/>
      <rect class="cls-1" x="353.85" y="0" width="7.24" height="7.24" rx="3.62" ry="3.62"/>
      <rect class="cls-1" x="353.85" y="9.06" width="7.24" height="7.24" rx="3.62" ry="3.62"/>
      <rect class="cls-1" x="362.91" y="0" width="7.24" height="7.24" rx="3.62" ry="3.62"/>
      <rect class="cls-1" x="362.9" y="9.05" width="7.25" height="7.25" rx="3.62" ry="3.62"/>
      <rect class="cls-1" x="0" y="9.06" width="7.24" height="7.24" rx="3.62" ry="3.62"/>
      <rect class="cls-1" x="0" y="18.11" width="7.24" height="7.24" rx="3.62" ry="3.62"/>
      <rect class="cls-1" x="0" y="27.16" width="7.24" height="7.24" rx="3.62" ry="3.62"/>
      <rect class="cls-1" x="0" y="36.22" width="7.24" height="7.24" rx="3.62" ry="3.62"/>
      <rect class="cls-1" x="0" y="45.27" width="7.24" height="7.24" rx="3.62" ry="3.62"/>
      <rect class="cls-1" x="9.05" y="0" width="7.24" height="7.24" rx="3.62" ry="3.62"/>
      <rect class="cls-1" x="9.05" y="9.06" width="7.24" height="7.24" rx="3.62" ry="3.62"/>
      <rect class="cls-1" x="9.05" y="18.11" width="7.24" height="7.24" rx="3.62" ry="3.62"/>
      <rect class="cls-1" x="9.05" y="27.16" width="7.25" height="7.25" rx="3.62" ry="3.62"/>
      <rect class="cls-1" x="9.05" y="36.22" width="7.24" height="7.24" rx="3.62" ry="3.62"/>
      <rect class="cls-1" x="9.05" y="45.27" width="7.24" height="7.24" rx="3.62" ry="3.62"/>
      <rect class="cls-1" x="9.05" y="54.32" width="7.25" height="7.25" rx="3.62" ry="3.62"/>
      <rect class="cls-1" x="18.11" y="0" width="7.24" height="7.24" rx="3.62" ry="3.62"/>
      <rect class="cls-1" x="18.11" y="9.06" width="7.24" height="7.24" rx="3.62" ry="3.62"/>
      <rect class="cls-1" x="18.11" y="45.27" width="7.24" height="7.24" rx="3.62" ry="3.62"/>
      <rect class="cls-1" x="18.11" y="54.33" width="7.24" height="7.24" rx="3.62" ry="3.62"/>
      <rect class="cls-1" x="27.16" y="0" width="7.24" height="7.24" rx="3.62" ry="3.62"/>
      <rect class="cls-1" x="27.16" y="9.06" width="7.24" height="7.24" rx="3.62" ry="3.62"/>
      <rect class="cls-1" x="27.16" y="18.11" width="7.24" height="7.24" rx="3.62" ry="3.62"/>
      <rect class="cls-1" x="27.16" y="36.22" width="7.24" height="7.24" rx="3.62" ry="3.62"/>
      <rect class="cls-1" x="27.16" y="45.27" width="7.24" height="7.24" rx="3.62" ry="3.62"/>
      <rect class="cls-1" x="27.16" y="54.33" width="7.24" height="7.24" rx="3.62" ry="3.62"/>
      <rect class="cls-1" x="36.21" y="9.05" width="7.25" height="7.25" rx="3.62" ry="3.62"/>
      <rect class="cls-1" x="36.21" y="18.11" width="7.24" height="7.24" rx="3.62" ry="3.62"/>
      <rect class="cls-1" x="36.21" y="36.22" width="7.24" height="7.24" rx="3.62" ry="3.62"/>
      <rect class="cls-1" x="36.22" y="45.27" width="7.24" height="7.24" rx="3.62" ry="3.62"/>
      <rect class="cls-1" x="272.39" y="9.06" width="7.24" height="7.24" rx="3.62" ry="3.62"/>
      <rect class="cls-1" x="272.39" y="18.11" width="7.24" height="7.24" rx="3.62" ry="3.62"/>
      <rect class="cls-1" x="272.39" y="27.16" width="7.24" height="7.24" rx="3.62" ry="3.62"/>
      <rect class="cls-1" x="272.39" y="36.22" width="7.24" height="7.24" rx="3.62" ry="3.62"/>
      <rect class="cls-1" x="272.39" y="45.27" width="7.24" height="7.24" rx="3.62" ry="3.62"/>
      <rect class="cls-1" x="281.45" y="0" width="7.24" height="7.24" rx="3.62" ry="3.62"/>
      <rect class="cls-1" x="281.45" y="9.06" width="7.24" height="7.24" rx="3.62" ry="3.62"/>
      <rect class="cls-1" x="281.45" y="18.11" width="7.24" height="7.24" rx="3.62" ry="3.62"/>
      <rect class="cls-1" x="281.44" y="27.16" width="7.25" height="7.25" rx="3.62" ry="3.62"/>
      <rect class="cls-1" x="281.45" y="36.22" width="7.24" height="7.24" rx="3.62" ry="3.62"/>
      <rect class="cls-1" x="281.45" y="45.27" width="7.24" height="7.24" rx="3.62" ry="3.62"/>
      <rect class="cls-1" x="281.44" y="54.32" width="7.25" height="7.25" rx="3.62" ry="3.62"/>
      <rect class="cls-1" x="290.5" y="0" width="7.24" height="7.24" rx="3.62" ry="3.62"/>
      <rect class="cls-1" x="290.5" y="9.06" width="7.24" height="7.24" rx="3.62" ry="3.62"/>
      <rect class="cls-1" x="290.5" y="45.27" width="7.24" height="7.24" rx="3.62" ry="3.62"/>
      <rect class="cls-1" x="290.5" y="54.33" width="7.24" height="7.24" rx="3.62" ry="3.62"/>
      <rect class="cls-1" x="299.55" y="0" width="7.24" height="7.24" rx="3.62" ry="3.62"/>
      <rect class="cls-1" x="299.55" y="9.06" width="7.24" height="7.24" rx="3.62" ry="3.62"/>
      <rect class="cls-1" x="299.55" y="18.11" width="7.24" height="7.24" rx="3.62" ry="3.62"/>
      <rect class="cls-1" x="299.55" y="36.22" width="7.24" height="7.24" rx="3.62" ry="3.62"/>
      <rect class="cls-1" x="299.55" y="45.27" width="7.24" height="7.24" rx="3.62" ry="3.62"/>
      <rect class="cls-1" x="299.55" y="54.33" width="7.24" height="7.24" rx="3.62" ry="3.62"/>
      <rect class="cls-1" x="308.6" y="9.05" width="7.25" height="7.25" rx="3.62" ry="3.62"/>
      <rect class="cls-1" x="308.61" y="18.11" width="7.24" height="7.24" rx="3.62" ry="3.62"/>
      <rect class="cls-1" x="308.61" y="36.22" width="7.24" height="7.24" rx="3.62" ry="3.62"/>
      <rect class="cls-1" x="308.61" y="45.27" width="7.24" height="7.24" rx="3.62" ry="3.62"/>
      <rect class="cls-1" x="109.71" y="0" width="7.24" height="7.24" rx="3.62" ry="3.62"/>
      <rect class="cls-1" x="109.71" y="9.06" width="7.24" height="7.24" rx="3.62" ry="3.62"/>
      <rect class="cls-1" x="109.71" y="18.11" width="7.24" height="7.24" rx="3.62" ry="3.62"/>
      <rect class="cls-1" x="109.71" y="27.16" width="7.24" height="7.24" rx="3.62" ry="3.62"/>
      <rect class="cls-1" x="109.71" y="36.22" width="7.24" height="7.24" rx="3.62" ry="3.62"/>
      <rect class="cls-1" x="109.71" y="45.27" width="7.24" height="7.24" rx="3.62" ry="3.62"/>
      <rect class="cls-1" x="109.71" y="54.33" width="7.24" height="7.24" rx="3.62" ry="3.62"/>
      <rect class="cls-1" x="118.76" y="0" width="7.24" height="7.24" rx="3.62" ry="3.62"/>
      <rect class="cls-1" x="118.76" y="9.05" width="7.25" height="7.25" rx="3.62" ry="3.62"/>
      <rect class="cls-1" x="118.76" y="18.11" width="7.24" height="7.24" rx="3.62" ry="3.62"/>
      <rect class="cls-1" x="118.76" y="27.16" width="7.24" height="7.24" rx="3.62" ry="3.62"/>
      <rect class="cls-1" x="118.76" y="36.22" width="7.24" height="7.24" rx="3.62" ry="3.62"/>
      <rect class="cls-1" x="127.82" y="18.11" width="7.24" height="7.24" rx="3.62" ry="3.62"/>
      <rect class="cls-1" x="127.82" y="27.16" width="7.24" height="7.24" rx="3.62" ry="3.62"/>
      <rect class="cls-1" x="127.82" y="36.22" width="7.24" height="7.24" rx="3.62" ry="3.62"/>
      <rect class="cls-1" x="127.82" y="45.27" width="7.24" height="7.24" rx="3.62" ry="3.62"/>
      <rect class="cls-1" x="136.87" y="27.17" width="7.24" height="7.24" rx="3.62" ry="3.62"/>
      <rect class="cls-1" x="136.87" y="36.22" width="7.24" height="7.24" rx="3.62" ry="3.62"/>
      <rect class="cls-1" x="136.87" y="45.27" width="7.24" height="7.24" rx="3.62" ry="3.62"/>
      <rect class="cls-1" x="136.87" y="54.33" width="7.24" height="7.24" rx="3.62" ry="3.62"/>
      <rect class="cls-1" x="145.92" y="0" width="7.24" height="7.24" rx="3.62" ry="3.62"/>
      <rect class="cls-1" x="145.92" y="9.05" width="7.25" height="7.25" rx="3.62" ry="3.62"/>
      <rect class="cls-1" x="145.92" y="18.11" width="7.24" height="7.24" rx="3.62" ry="3.62"/>
      <rect class="cls-1" x="145.93" y="27.16" width="7.24" height="7.24" rx="3.62" ry="3.62"/>
      <rect class="cls-1" x="145.93" y="36.22" width="7.24" height="7.24" rx="3.62" ry="3.62"/>
      <rect class="cls-1" x="145.93" y="45.27" width="7.24" height="7.24" rx="3.62" ry="3.62"/>
      <rect class="cls-1" x="145.93" y="54.33" width="7.24" height="7.24" rx="3.62" ry="3.62"/>
      <rect class="cls-1" x="381.78" y="9.06" width="7.24" height="7.24" rx="3.62" ry="3.62"/>
      <rect class="cls-1" x="381.78" y="18.11" width="7.24" height="7.24" rx="3.62" ry="3.62"/>
      <rect class="cls-1" x="381.78" y="27.17" width="7.24" height="7.24" rx="3.62" ry="3.62"/>
      <rect class="cls-1" x="381.78" y="45.27" width="7.24" height="7.24" rx="3.62" ry="3.62"/>
      <rect class="cls-1" x="390.83" y="0" width="7.24" height="7.24" rx="3.62" ry="3.62"/>
      <rect class="cls-1" x="390.83" y="9.05" width="7.25" height="7.25" rx="3.62" ry="3.62"/>
      <rect class="cls-1" x="390.83" y="18.11" width="7.24" height="7.24" rx="3.62" ry="3.62"/>
      <rect class="cls-1" x="390.83" y="27.16" width="7.25" height="7.25" rx="3.62" ry="3.62"/>
      <rect class="cls-1" x="390.83" y="45.27" width="7.24" height="7.24" rx="3.62" ry="3.62"/>
      <rect class="cls-1" x="390.83" y="54.32" width="7.25" height="7.25" rx="3.62" ry="3.62"/>
      <rect class="cls-1" x="399.89" y="0" width="7.24" height="7.24" rx="3.62" ry="3.62"/>
      <rect class="cls-1" x="399.89" y="27.17" width="7.24" height="7.24" rx="3.62" ry="3.62"/>
      <rect class="cls-1" x="399.89" y="54.33" width="7.24" height="7.24" rx="3.62" ry="3.62"/>
      <rect class="cls-1" x="408.94" y="0" width="7.24" height="7.24" rx="3.62" ry="3.62"/>
      <rect class="cls-1" x="408.94" y="9.06" width="7.24" height="7.24" rx="3.62" ry="3.62"/>
      <rect class="cls-1" x="408.94" y="27.17" width="7.24" height="7.24" rx="3.62" ry="3.62"/>
      <rect class="cls-1" x="408.94" y="36.22" width="7.24" height="7.24" rx="3.62" ry="3.62"/>
      <rect class="cls-1" x="408.94" y="45.27" width="7.24" height="7.24" rx="3.62" ry="3.62"/>
      <rect class="cls-1" x="408.94" y="54.33" width="7.24" height="7.24" rx="3.62" ry="3.62"/>
      <rect class="cls-1" x="417.99" y="9.05" width="7.25" height="7.25" rx="3.62" ry="3.62"/>
      <rect class="cls-1" x="417.99" y="27.16" width="7.25" height="7.25" rx="3.62" ry="3.62"/>
      <rect class="cls-1" x="418" y="36.22" width="7.24" height="7.24" rx="3.62" ry="3.62"/>
      <rect class="cls-1" x="417.99" y="45.27" width="7.24" height="7.24" rx="3.62" ry="3.62"/>
      <rect class="cls-1" x="54.3" y="9.06" width="7.24" height="7.24" rx="3.62" ry="3.62"/>
      <rect class="cls-1" x="54.3" y="18.11" width="7.24" height="7.24" rx="3.62" ry="3.62"/>
      <rect class="cls-1" x="54.3" y="27.17" width="7.24" height="7.24" rx="3.62" ry="3.62"/>
      <rect class="cls-1" x="54.3" y="36.22" width="7.24" height="7.24" rx="3.62" ry="3.62"/>
      <rect class="cls-1" x="54.3" y="45.27" width="7.24" height="7.24" rx="3.62" ry="3.62"/>
      <rect class="cls-1" x="63.35" y="0" width="7.24" height="7.24" rx="3.62" ry="3.62"/>
      <rect class="cls-1" x="63.35" y="9.06" width="7.24" height="7.24" rx="3.62" ry="3.62"/>
      <rect class="cls-1" x="63.35" y="18.11" width="7.24" height="7.24" rx="3.62" ry="3.62"/>
      <rect class="cls-1" x="63.35" y="27.16" width="7.25" height="7.25" rx="3.62" ry="3.62"/>
      <rect class="cls-1" x="63.35" y="36.22" width="7.24" height="7.24" rx="3.62" ry="3.62"/>
      <rect class="cls-1" x="63.35" y="45.27" width="7.24" height="7.24" rx="3.62" ry="3.62"/>
      <rect class="cls-1" x="63.35" y="54.32" width="7.25" height="7.25" rx="3.62" ry="3.62"/>
      <rect class="cls-1" x="72.4" y="0" width="7.24" height="7.24" rx="3.62" ry="3.62"/>
      <rect class="cls-1" x="72.41" y="9.06" width="7.24" height="7.24" rx="3.62" ry="3.62"/>
      <rect class="cls-1" x="72.41" y="45.27" width="7.24" height="7.24" rx="3.62" ry="3.62"/>
      <rect class="cls-1" x="72.4" y="54.33" width="7.24" height="7.24" rx="3.62" ry="3.62"/>
      <rect class="cls-1" x="81.46" y="0" width="7.24" height="7.24" rx="3.62" ry="3.62"/>
      <rect class="cls-1" x="81.46" y="9.06" width="7.24" height="7.24" rx="3.62" ry="3.62"/>
      <rect class="cls-1" x="81.46" y="18.11" width="7.24" height="7.24" rx="3.62" ry="3.62"/>
      <rect class="cls-1" x="81.46" y="27.17" width="7.24" height="7.24" rx="3.62" ry="3.62"/>
      <rect class="cls-1" x="81.46" y="36.22" width="7.24" height="7.24" rx="3.62" ry="3.62"/>
      <rect class="cls-1" x="81.46" y="45.27" width="7.24" height="7.24" rx="3.62" ry="3.62"/>
      <rect class="cls-1" x="81.46" y="54.33" width="7.24" height="7.24" rx="3.62" ry="3.62"/>
      <rect class="cls-1" x="90.51" y="9.05" width="7.25" height="7.25" rx="3.62" ry="3.62"/>
      <rect class="cls-1" x="90.51" y="18.11" width="7.24" height="7.24" rx="3.62" ry="3.62"/>
      <rect class="cls-1" x="90.51" y="27.17" width="7.24" height="7.24" rx="3.62" ry="3.62"/>
      <rect class="cls-1" x="90.51" y="36.22" width="7.24" height="7.24" rx="3.62" ry="3.62"/>
      <rect class="cls-1" x="90.51" y="45.27" width="7.24" height="7.24" rx="3.62" ry="3.62"/>
    </g>
  </g>
</svg>