<?xml version="1.0" encoding="UTF-8"?>
<svg id="Layer_2" data-name="Layer 2" xmlns="http://www.w3.org/2000/svg" viewBox="0 0 315.85 61.57">
  <defs>
    <style>
      .cls-1 {
        fill: #008cff;
        stroke-width: 0px;
      }
    </style>
  </defs>
  <g id="Layer_1-2" data-name="Layer 1">
    <g>
      <rect class="cls-1" x="109.42" y="0" width="7.24" height="7.24" rx="3.62" ry="3.62"/>
      <rect class="cls-1" x="109.42" y="9.05" width="7.24" height="7.25" rx="3.62" ry="3.62"/>
      <rect class="cls-1" x="109.42" y="45.27" width="7.24" height="7.25" rx="3.62" ry="3.62"/>
      <rect class="cls-1" x="109.42" y="54.33" width="7.24" height="7.24" rx="3.62" ry="3.62"/>
      <rect class="cls-1" x="118.47" y="0" width="7.24" height="7.24" rx="3.62" ry="3.62"/>
      <rect class="cls-1" x="118.48" y="9.05" width="7.24" height="7.25" rx="3.62" ry="3.62"/>
      <rect class="cls-1" x="118.48" y="45.27" width="7.24" height="7.24" rx="3.62" ry="3.62"/>
      <rect class="cls-1" x="118.47" y="54.33" width="7.24" height="7.24" rx="3.62" ry="3.62"/>
      <rect class="cls-1" x="127.53" y="0" width="7.24" height="7.24" rx="3.62" ry="3.62"/>
      <rect class="cls-1" x="127.53" y="9.06" width="7.24" height="7.24" rx="3.62" ry="3.62"/>
      <rect class="cls-1" x="127.53" y="18.11" width="7.24" height="7.25" rx="3.62" ry="3.62"/>
      <rect class="cls-1" x="127.53" y="27.16" width="7.24" height="7.25" rx="3.62" ry="3.62"/>
      <rect class="cls-1" x="127.53" y="36.22" width="7.24" height="7.25" rx="3.62" ry="3.62"/>
      <rect class="cls-1" x="127.53" y="45.27" width="7.24" height="7.24" rx="3.62" ry="3.62"/>
      <rect class="cls-1" x="127.53" y="54.33" width="7.24" height="7.24" rx="3.62" ry="3.62"/>
      <rect class="cls-1" x="136.58" y="0" width="7.24" height="7.24" rx="3.62" ry="3.62"/>
      <rect class="cls-1" x="136.59" y="9.05" width="7.24" height="7.25" rx="3.62" ry="3.62"/>
      <rect class="cls-1" x="136.59" y="45.27" width="7.24" height="7.24" rx="3.62" ry="3.62"/>
      <rect class="cls-1" x="136.58" y="54.33" width="7.24" height="7.24" rx="3.62" ry="3.62"/>
      <rect class="cls-1" x="145.64" y="0" width="7.24" height="7.24" rx="3.62" ry="3.62"/>
      <rect class="cls-1" x="145.64" y="9.05" width="7.24" height="7.25" rx="3.62" ry="3.62"/>
      <rect class="cls-1" x="145.64" y="45.27" width="7.24" height="7.24" rx="3.62" ry="3.62"/>
      <rect class="cls-1" x="145.64" y="54.33" width="7.24" height="7.24" rx="3.62" ry="3.62"/>
      <rect class="cls-1" x="167.78" y="0" width="7.24" height="7.24" rx="3.62" ry="3.62"/>
      <rect class="cls-1" x="167.78" y="9.06" width="7.24" height="7.24" rx="3.62" ry="3.62"/>
      <rect class="cls-1" x="167.78" y="18.11" width="7.24" height="7.24" rx="3.62" ry="3.62"/>
      <rect class="cls-1" x="167.78" y="27.17" width="7.24" height="7.24" rx="3.62" ry="3.62"/>
      <rect class="cls-1" x="167.78" y="36.22" width="7.24" height="7.24" rx="3.62" ry="3.62"/>
      <rect class="cls-1" x="167.78" y="45.27" width="7.24" height="7.24" rx="3.62" ry="3.62"/>
      <rect class="cls-1" x="167.78" y="54.33" width="7.24" height="7.24" rx="3.62" ry="3.62"/>
      <rect class="cls-1" x="176.83" y="0" width="7.24" height="7.25" rx="3.62" ry="3.62"/>
      <rect class="cls-1" x="176.83" y="9.05" width="7.24" height="7.25" rx="3.62" ry="3.62"/>
      <rect class="cls-1" x="176.83" y="18.11" width="7.24" height="7.25" rx="3.62" ry="3.62"/>
      <rect class="cls-1" x="176.83" y="27.16" width="7.24" height="7.25" rx="3.62" ry="3.62"/>
      <rect class="cls-1" x="176.83" y="36.22" width="7.24" height="7.25" rx="3.62" ry="3.62"/>
      <rect class="cls-1" x="176.83" y="45.27" width="7.24" height="7.24" rx="3.62" ry="3.62"/>
      <rect class="cls-1" x="176.83" y="54.33" width="7.24" height="7.24" rx="3.62" ry="3.62"/>
      <rect class="cls-1" x="185.89" y="45.27" width="7.24" height="7.24" rx="3.62" ry="3.62"/>
      <rect class="cls-1" x="185.88" y="54.33" width="7.24" height="7.24" rx="3.62" ry="3.62"/>
      <rect class="cls-1" x="194.94" y="45.27" width="7.24" height="7.25" rx="3.62" ry="3.62"/>
      <rect class="cls-1" x="194.94" y="54.33" width="7.24" height="7.24" rx="3.62" ry="3.62"/>
      <rect class="cls-1" x="204" y="45.27" width="7.24" height="7.24" rx="3.62" ry="3.62"/>
      <rect class="cls-1" x="203.99" y="54.33" width="7.24" height="7.24" rx="3.62" ry="3.62"/>
      <rect class="cls-1" x="221.35" y="0" width="7.24" height="7.24" rx="3.62" ry="3.62"/>
      <rect class="cls-1" x="221.35" y="9.06" width="7.24" height="7.24" rx="3.62" ry="3.62"/>
      <rect class="cls-1" x="221.35" y="18.11" width="7.24" height="7.24" rx="3.62" ry="3.62"/>
      <rect class="cls-1" x="221.35" y="27.17" width="7.24" height="7.24" rx="3.62" ry="3.62"/>
      <rect class="cls-1" x="221.35" y="36.22" width="7.24" height="7.24" rx="3.62" ry="3.62"/>
      <rect class="cls-1" x="221.35" y="45.27" width="7.24" height="7.24" rx="3.62" ry="3.62"/>
      <rect class="cls-1" x="221.35" y="54.33" width="7.24" height="7.24" rx="3.62" ry="3.62"/>
      <rect class="cls-1" x="230.4" y="0" width="7.24" height="7.25" rx="3.62" ry="3.62"/>
      <rect class="cls-1" x="230.4" y="9.05" width="7.24" height="7.25" rx="3.62" ry="3.62"/>
      <rect class="cls-1" x="230.4" y="18.11" width="7.24" height="7.25" rx="3.62" ry="3.62"/>
      <rect class="cls-1" x="230.4" y="27.16" width="7.24" height="7.25" rx="3.62" ry="3.62"/>
      <rect class="cls-1" x="230.4" y="36.22" width="7.24" height="7.25" rx="3.62" ry="3.62"/>
      <rect class="cls-1" x="230.4" y="45.27" width="7.24" height="7.24" rx="3.62" ry="3.62"/>
      <rect class="cls-1" x="230.4" y="54.33" width="7.24" height="7.24" rx="3.62" ry="3.62"/>
      <rect class="cls-1" x="239.46" y="45.27" width="7.24" height="7.24" rx="3.62" ry="3.62"/>
      <rect class="cls-1" x="239.46" y="54.33" width="7.24" height="7.24" rx="3.62" ry="3.62"/>
      <rect class="cls-1" x="248.51" y="45.27" width="7.24" height="7.25" rx="3.62" ry="3.62"/>
      <rect class="cls-1" x="248.51" y="54.33" width="7.24" height="7.24" rx="3.62" ry="3.62"/>
      <rect class="cls-1" x="257.57" y="45.27" width="7.24" height="7.24" rx="3.62" ry="3.62"/>
      <rect class="cls-1" x="257.57" y="54.33" width="7.24" height="7.24" rx="3.62" ry="3.62"/>
      <rect class="cls-1" x="0" y="9.06" width="7.24" height="7.24" rx="3.62" ry="3.62"/>
      <rect class="cls-1" x="0" y="18.11" width="7.24" height="7.24" rx="3.62" ry="3.62"/>
      <rect class="cls-1" x="0" y="27.17" width="7.24" height="7.24" rx="3.62" ry="3.62"/>
      <rect class="cls-1" x="0" y="45.27" width="7.24" height="7.24" rx="3.62" ry="3.62"/>
      <rect class="cls-1" x="9.06" y="0" width="7.24" height="7.24" rx="3.62" ry="3.62"/>
      <rect class="cls-1" x="9.05" y="9.05" width="7.25" height="7.25" rx="3.62" ry="3.62"/>
      <rect class="cls-1" x="9.06" y="18.11" width="7.24" height="7.24" rx="3.62" ry="3.62"/>
      <rect class="cls-1" x="9.05" y="27.16" width="7.25" height="7.25" rx="3.62" ry="3.62"/>
      <rect class="cls-1" x="9.06" y="45.27" width="7.24" height="7.24" rx="3.62" ry="3.62"/>
      <rect class="cls-1" x="9.05" y="54.32" width="7.25" height="7.25" rx="3.62" ry="3.62"/>
      <rect class="cls-1" x="18.11" y="0" width="7.24" height="7.24" rx="3.62" ry="3.62"/>
      <rect class="cls-1" x="18.11" y="27.17" width="7.24" height="7.24" rx="3.62" ry="3.62"/>
      <rect class="cls-1" x="18.11" y="54.33" width="7.24" height="7.24" rx="3.62" ry="3.62"/>
      <rect class="cls-1" x="27.16" y="0" width="7.24" height="7.24" rx="3.62" ry="3.62"/>
      <rect class="cls-1" x="27.16" y="9.06" width="7.24" height="7.24" rx="3.62" ry="3.62"/>
      <rect class="cls-1" x="27.16" y="27.17" width="7.24" height="7.24" rx="3.62" ry="3.62"/>
      <rect class="cls-1" x="27.16" y="36.22" width="7.24" height="7.24" rx="3.62" ry="3.62"/>
      <rect class="cls-1" x="27.16" y="45.27" width="7.24" height="7.24" rx="3.62" ry="3.62"/>
      <rect class="cls-1" x="27.16" y="54.33" width="7.24" height="7.24" rx="3.62" ry="3.62"/>
      <rect class="cls-1" x="36.21" y="9.05" width="7.25" height="7.25" rx="3.62" ry="3.62"/>
      <rect class="cls-1" x="36.21" y="27.16" width="7.25" height="7.25" rx="3.62" ry="3.62"/>
      <rect class="cls-1" x="36.22" y="36.22" width="7.24" height="7.24" rx="3.62" ry="3.62"/>
      <rect class="cls-1" x="36.22" y="45.27" width="7.24" height="7.24" rx="3.62" ry="3.62"/>
      <rect class="cls-1" x="272.39" y="9.06" width="7.24" height="7.24" rx="3.62" ry="3.62"/>
      <rect class="cls-1" x="272.39" y="18.11" width="7.24" height="7.24" rx="3.62" ry="3.62"/>
      <rect class="cls-1" x="272.39" y="27.17" width="7.24" height="7.24" rx="3.62" ry="3.62"/>
      <rect class="cls-1" x="272.4" y="45.27" width="7.24" height="7.24" rx="3.62" ry="3.62"/>
      <rect class="cls-1" x="281.45" y="0" width="7.24" height="7.24" rx="3.62" ry="3.62"/>
      <rect class="cls-1" x="281.45" y="9.05" width="7.25" height="7.25" rx="3.62" ry="3.62"/>
      <rect class="cls-1" x="281.45" y="18.11" width="7.24" height="7.24" rx="3.62" ry="3.62"/>
      <rect class="cls-1" x="281.45" y="27.16" width="7.25" height="7.25" rx="3.62" ry="3.62"/>
      <rect class="cls-1" x="281.45" y="45.27" width="7.24" height="7.24" rx="3.62" ry="3.62"/>
      <rect class="cls-1" x="281.45" y="54.32" width="7.25" height="7.25" rx="3.62" ry="3.62"/>
      <rect class="cls-1" x="290.51" y="0" width="7.24" height="7.24" rx="3.62" ry="3.62"/>
      <rect class="cls-1" x="290.5" y="27.17" width="7.24" height="7.24" rx="3.62" ry="3.62"/>
      <rect class="cls-1" x="290.5" y="54.33" width="7.24" height="7.24" rx="3.62" ry="3.62"/>
      <rect class="cls-1" x="299.56" y="0" width="7.24" height="7.24" rx="3.62" ry="3.62"/>
      <rect class="cls-1" x="299.55" y="9.06" width="7.24" height="7.24" rx="3.62" ry="3.62"/>
      <rect class="cls-1" x="299.55" y="27.17" width="7.24" height="7.24" rx="3.62" ry="3.62"/>
      <rect class="cls-1" x="299.56" y="36.22" width="7.24" height="7.24" rx="3.62" ry="3.62"/>
      <rect class="cls-1" x="299.56" y="45.27" width="7.24" height="7.24" rx="3.62" ry="3.62"/>
      <rect class="cls-1" x="299.55" y="54.33" width="7.24" height="7.24" rx="3.62" ry="3.62"/>
      <rect class="cls-1" x="308.61" y="9.05" width="7.25" height="7.25" rx="3.62" ry="3.62"/>
      <rect class="cls-1" x="308.61" y="27.16" width="7.25" height="7.25" rx="3.62" ry="3.62"/>
      <rect class="cls-1" x="308.61" y="36.22" width="7.24" height="7.24" rx="3.62" ry="3.62"/>
      <rect class="cls-1" x="308.61" y="45.27" width="7.24" height="7.24" rx="3.62" ry="3.62"/>
      <rect class="cls-1" x="54.71" y="0" width="7.24" height="7.24" rx="3.62" ry="3.62"/>
      <rect class="cls-1" x="54.71" y="9.06" width="7.24" height="7.24" rx="3.62" ry="3.62"/>
      <rect class="cls-1" x="54.71" y="18.11" width="7.24" height="7.24" rx="3.62" ry="3.62"/>
      <rect class="cls-1" x="54.71" y="27.16" width="7.24" height="7.24" rx="3.62" ry="3.62"/>
      <rect class="cls-1" x="54.71" y="36.22" width="7.24" height="7.24" rx="3.62" ry="3.62"/>
      <rect class="cls-1" x="54.71" y="45.27" width="7.24" height="7.24" rx="3.62" ry="3.62"/>
      <rect class="cls-1" x="54.71" y="54.33" width="7.24" height="7.24" rx="3.62" ry="3.62"/>
      <rect class="cls-1" x="63.77" y="0" width="7.24" height="7.24" rx="3.62" ry="3.62"/>
      <rect class="cls-1" x="63.77" y="9.06" width="7.24" height="7.24" rx="3.62" ry="3.62"/>
      <rect class="cls-1" x="63.76" y="18.11" width="7.24" height="7.24" rx="3.62" ry="3.62"/>
      <rect class="cls-1" x="63.76" y="27.16" width="7.24" height="7.24" rx="3.62" ry="3.62"/>
      <rect class="cls-1" x="63.76" y="36.22" width="7.24" height="7.24" rx="3.62" ry="3.62"/>
      <rect class="cls-1" x="63.77" y="45.27" width="7.24" height="7.24" rx="3.62" ry="3.62"/>
      <rect class="cls-1" x="63.77" y="54.33" width="7.24" height="7.24" rx="3.62" ry="3.62"/>
      <rect class="cls-1" x="72.82" y="18.11" width="7.24" height="7.24" rx="3.62" ry="3.62"/>
      <rect class="cls-1" x="72.82" y="27.17" width="7.24" height="7.24" rx="3.62" ry="3.62"/>
      <rect class="cls-1" x="72.82" y="36.22" width="7.24" height="7.24" rx="3.62" ry="3.62"/>
      <rect class="cls-1" x="81.87" y="9.05" width="7.25" height="7.25" rx="3.62" ry="3.62"/>
      <rect class="cls-1" x="81.87" y="18.11" width="7.24" height="7.24" rx="3.62" ry="3.62"/>
      <rect class="cls-1" x="81.87" y="36.22" width="7.24" height="7.24" rx="3.62" ry="3.62"/>
      <rect class="cls-1" x="81.87" y="45.27" width="7.24" height="7.24" rx="3.62" ry="3.62"/>
      <rect class="cls-1" x="90.93" y="0" width="7.24" height="7.24" rx="3.62" ry="3.62"/>
      <rect class="cls-1" x="90.93" y="9.06" width="7.24" height="7.24" rx="3.62" ry="3.62"/>
      <rect class="cls-1" x="90.93" y="45.27" width="7.24" height="7.24" rx="3.62" ry="3.62"/>
      <rect class="cls-1" x="90.93" y="54.33" width="7.24" height="7.24" rx="3.62" ry="3.62"/>
    </g>
  </g>
</svg>